<!DOCTYPE svg PUBLIC "-//W3C//DTD SVG 1.1//EN" "http://www.w3.org/Graphics/SVG/1.1/DTD/svg11.dtd">
<!-- Uploaded to: SVG Repo, www.svgrepo.com, Transformed by: SVG Repo Mixer Tools -->
<svg version="1.1" id="Layer_1" xmlns:x="&amp;ns_extend;" xmlns:i="&amp;ns_ai;" xmlns:graph="&amp;ns_graphs;" xmlns="http://www.w3.org/2000/svg" xmlns:xlink="http://www.w3.org/1999/xlink" width="800px" height="800px" viewBox="0 0 24 24" enable-background="new 0 0 24 24" xml:space="preserve" fill="#ffffff" stroke="#ffffff">
<g id="SVGRepo_bgCarrier" stroke-width="0"/>
<g id="SVGRepo_tracerCarrier" stroke-linecap="round" stroke-linejoin="round"/>
<g id="SVGRepo_iconCarrier"> <metadata> <sfw> <slices> </slices> <slicesourcebounds width="505" height="984" bottomleftorigin="true" x="0" y="-984"> </slicesourcebounds> </sfw> </metadata> <g> <g> <g> <path stroke="#2d2d2d" stroke-width="2" stroke-miterlimit="10" d="M13,7"/> </g> </g> <g> <g> <path d="M20,8h-6c-0.6,0-1-0.4-1-1V1h2v5h5V8z"/> </g> </g> <g> <g> <path d="M20,24H4c-0.6,0-1-0.4-1-1V1c0-0.6,0.4-1,1-1h10c0.3,0,0.5,0.1,0.7,0.3l6,6C20.9,6.5,21,6.7,21,7v16 C21,23.6,20.6,24,20,24z M5,22h14V7.4L13.6,2H5V22z"/> </g> </g> </g> </g>
</svg>